<svg width="75" height="52" viewBox="0 0 75 52" fill="none" xmlns="http://www.w3.org/2000/svg">
<g filter="url(#filter0_d_76_42)">
<path d="M36.1632 0.91713C36.5239 0.152676 37.6114 0.152678 37.9721 0.917133L41.8246 9.08354C42.0747 9.61363 42.7249 9.81598 43.2316 9.52137L53.4921 3.55571C54.3245 3.07173 55.2928 3.92835 54.9141 4.81359L52.0409 11.5284C51.7326 12.249 52.3355 13.0281 53.1105 12.9104L65.1248 11.0857C66.2041 10.9218 66.7277 12.3591 65.796 12.9279L58.8444 17.1718C58.0542 17.6542 58.2873 18.8587 59.2003 19.0116L69.2454 20.6936C70.3585 20.88 70.3585 22.4798 69.2454 22.6662L59.2003 24.3482C58.2872 24.5011 58.0542 25.7056 58.8444 26.188L65.796 30.4319C66.7278 31.0007 66.2041 32.438 65.1248 32.2741L53.1105 30.4493C52.3355 30.3316 51.7326 31.1107 52.0409 31.8314L54.9141 38.5462C55.2928 39.4314 54.3245 40.2881 53.4921 39.8041L43.2316 33.8384C42.7249 33.5438 42.0747 33.7462 41.8246 34.2762L37.9721 42.4427C37.6114 43.2071 36.5239 43.2071 36.1632 42.4426L32.3107 34.2762C32.0606 33.7462 31.4104 33.5438 30.9037 33.8384L20.6432 39.8041C19.8108 40.2881 18.8424 39.4314 19.2212 38.5462L22.0944 31.8314C22.4027 31.1108 21.7998 30.3316 21.0248 30.4493L9.0105 32.2741C7.93124 32.438 7.40755 31.0007 8.33928 30.4319L15.2909 26.188C16.0811 25.7056 15.848 24.5011 14.935 24.3482L4.88994 22.6662C3.7768 22.4798 3.7768 20.88 4.88994 20.6936L14.935 19.0116C15.848 18.8587 16.0811 17.6542 15.2909 17.1718L8.33928 12.9279C7.40754 12.3591 7.93124 10.9218 9.0105 11.0857L21.0248 12.9104C21.7998 13.0281 22.4027 12.249 22.0944 11.5284L19.2212 4.81359C18.8424 3.92835 19.8108 3.07173 20.6432 3.55571L30.9037 9.52138C31.4104 9.81598 32.0606 9.61363 32.3107 9.08354L36.1632 0.91713Z" fill="#FFA800"/>
</g>
<defs>
<filter id="filter0_d_76_42" x="0.0550537" y="0.343792" width="74.0251" height="50.6722" filterUnits="userSpaceOnUse" color-interpolation-filters="sRGB">
<feFlood flood-opacity="0" result="BackgroundImageFix"/>
<feColorMatrix in="SourceAlpha" type="matrix" values="0 0 0 0 0 0 0 0 0 0 0 0 0 0 0 0 0 0 127 0" result="hardAlpha"/>
<feOffset dy="4"/>
<feGaussianBlur stdDeviation="2"/>
<feComposite in2="hardAlpha" operator="out"/>
<feColorMatrix type="matrix" values="0 0 0 0 0 0 0 0 0 0 0 0 0 0 0 0 0 0 0.25 0"/>
<feBlend mode="normal" in2="BackgroundImageFix" result="effect1_dropShadow_76_42"/>
<feBlend mode="normal" in="SourceGraphic" in2="effect1_dropShadow_76_42" result="shape"/>
</filter>
</defs>
</svg>
