<svg width="12" height="12" viewBox="0 0 12 12" fill="none" xmlns="http://www.w3.org/2000/svg">
<path d="M10.7163 4.68284C11.1631 4.93997 11.5002 5.29034 11.7278 5.73393C11.9553 6.17752 12.0402 6.65418 11.9825 7.1639C11.9247 7.67362 11.7371 8.12147 11.4195 8.50745C11.1019 8.89343 10.6977 9.16617 10.2069 9.32567C10.0194 10.124 9.61964 10.7649 9.00763 11.2482C8.39563 11.7315 7.67872 11.9821 6.8569 12H5.57058C5.44538 12 5.34262 11.9601 5.26229 11.8804C5.18197 11.8006 5.14181 11.6986 5.14181 11.5743C5.14181 11.45 5.18197 11.3479 5.26229 11.2682C5.34262 11.1884 5.44538 11.1486 5.57058 11.1486H6.8569C7.41088 11.1398 7.90669 10.9824 8.34432 10.6765C8.78196 10.3705 9.09468 9.96027 9.28248 9.44572H9.0012C8.876 9.44572 8.77324 9.40585 8.69291 9.3261C8.61259 9.24635 8.57243 9.14432 8.57243 9.02001V4.76288C8.57243 4.63857 8.61259 4.53654 8.69291 4.45679C8.77324 4.37704 8.876 4.33716 9.0012 4.33716H9.42998C9.5729 4.33716 9.7114 4.3461 9.84546 4.36398C9.72026 3.37065 9.30263 2.5547 8.59258 1.91613C7.88253 1.27757 7.01827 0.94934 5.99978 0.93146C4.9813 0.94934 4.11704 1.27757 3.40699 1.91613C2.69694 2.5547 2.27931 3.37065 2.15411 4.36398C2.28817 4.3461 2.42667 4.33716 2.56959 4.33716H2.99837C3.12357 4.33716 3.22633 4.37704 3.30665 4.45679C3.38698 4.53654 3.42714 4.63857 3.42714 4.76288V9.02001C3.42714 9.14432 3.38698 9.24635 3.30665 9.3261C3.22633 9.40585 3.12357 9.44572 2.99837 9.44572H2.56959C1.97102 9.43692 1.44849 9.26181 1.00199 8.92039C0.555498 8.57897 0.254069 8.12218 0.0977098 7.55002C-0.0586498 6.97786 -0.0273492 6.43238 0.191611 5.91358C0.410572 5.39478 0.774601 4.98453 1.2837 4.68284C1.31943 3.35235 1.7795 2.24592 2.66392 1.36356C3.54834 0.481198 4.66044 0.026678 6.00021 0C7.34028 0.026678 8.45237 0.481198 9.3365 1.36356C10.2206 2.24592 10.6807 3.35235 10.7167 4.68284H10.7163ZM2.56959 5.18817C2.08708 5.19696 1.68289 5.36328 1.35702 5.6871C1.03115 6.01093 0.863643 6.41223 0.854496 6.89102C0.863357 7.37009 1.03087 7.77139 1.35702 8.09493C1.68317 8.41848 2.08736 8.58479 2.56959 8.59387V5.18817ZM11.1451 6.89102C11.1362 6.41195 10.9687 6.01064 10.6425 5.6871C10.3164 5.36356 9.9122 5.19725 9.42998 5.18817V8.59387C9.91249 8.58507 10.3167 8.41876 10.6425 8.09493C10.9684 7.77111 11.1359 7.3698 11.1451 6.89102Z" fill="#FF0000" fill-opacity="0.96"/>
</svg>
